<svg xmlns="http://www.w3.org/2000/svg" xmlns:xlink="http://www.w3.org/1999/xlink" version="1.1" x="0px" y="0px" viewBox="0 0 100 100" enable-background="new 0 0 100 100" xml:space="preserve"><g><path d="M32.136,45.554c-0.708-0.662-1.127-1.447-1.127-2.383c0-4.813,4.552-11.081,11.581-13.939   c-2.094-2.309-3.443-5.442-3.687-8.498c-2.813,0.9-5.334,3.067-6.202,5.589L28.14,39.589   C27.076,42.672,28.869,45.202,32.136,45.554z"></path><path d="M68.994,43.171c0,0.936-0.418,1.721-1.129,2.383c3.27-0.349,5.06-2.882,4.002-5.965l-4.561-13.267   c-0.869-2.521-3.388-4.686-6.203-5.589c-0.24,3.056-1.59,6.187-3.687,8.498C64.443,32.09,68.994,38.357,68.994,43.171z"></path><path d="M45.706,29.873c-7.532,1.913-13.113,8.45-13.113,13.298c0,5.727,34.817,5.727,34.817,0c0-4.849-5.583-11.389-13.111-13.298   c3.149-2.122,5.317-6.296,5.317-10.061c0-5.313-4.304-9.618-9.613-9.618c-5.31,0-9.613,4.305-9.613,9.618   C40.387,23.574,42.557,27.751,45.706,29.873z M50,31.274c0.837,0,1.641-0.164,2.406-0.441l-1.596,1.824h-0.037l4.109,9.93   L50,47.461l-4.884-4.875l4.11-9.93h-0.043l-1.595-1.827C48.362,31.107,49.164,31.274,50,31.274z"></path><polygon points="95,60.186 95,56.044 83.466,47.461 92.535,56.044 7.46,56.044 16.535,47.461 5,56.044 5,60.186 13.368,60.186    13.368,85.158 11.29,85.158 11.29,87.5 8.192,87.5 8.192,89.806 91.809,89.806 91.809,87.5 88.712,87.5 88.712,85.158    86.634,85.158 86.634,60.186  "></polygon></g></svg>