<svg height='100px' width='100px'  fill="#000000" xmlns:dc="http://purl.org/dc/elements/1.1/" xmlns:cc="http://creativecommons.org/ns#" xmlns:rdf="http://www.w3.org/1999/02/22-rdf-syntax-ns#" xmlns:svg="http://www.w3.org/2000/svg" xmlns="http://www.w3.org/2000/svg" xmlns:sodipodi="http://sodipodi.sourceforge.net/DTD/sodipodi-0.dtd" xmlns:inkscape="http://www.inkscape.org/namespaces/inkscape" version="1.1" x="0px" y="0px" viewBox="0 0 100 100"><g transform="translate(0,-952.36218)"><path style="text-indent:0;text-transform:none;direction:ltr;block-progression:tb;baseline-shift:baseline;color:#000000;enable-background:accumulate;" d="m 36.769468,962.36218 c -0.275351,0.0143 -0.407305,0.32613 -0.394937,0.57632 l 0,10.80594 -26.317417,0 c -2.2311145,0 -4.0571225,1.86972 -4.0571225,4.14228 l 0,60.29718 c 0,2.2725 1.817858,4.1783 4.0571225,4.1783 l 79.849875,0 c 2.273209,0 4.093019,-1.9058 4.093019,-4.1783 l 0,-60.29718 c 0,-2.27256 -1.82778,-4.14228 -4.093019,-4.14228 l -26.245629,0 0,-10.80594 c 0,-0.30175 -0.273685,-0.57628 -0.574477,-0.57632 -8.767204,0 -17.564562,0 -26.317416,0 z m 0.75398,1.15264 24.988994,0 0,10.22962 -24.988995,0 z m -27.466334,11.38226 79.849875,0 c 0.306177,0 0.584119,0.0582 0.861659,0.14408 -3.633517,18.14631 -19.927945,31.71144 -32.708265,33.21024 l 0,-6.7717 c 0,-1.82266 -1.482518,-3.31383 -3.267247,-3.31383 l -9.586275,0 c -1.816795,0 -3.267248,1.50155 -3.267248,3.31383 l 0,6.6637 c -13.6502,-2.7492 -27.385475,-12.77127 -32.5646565,-33.13826 0.234177,-0.0756 0.484512,-0.0768 0.6821575,-0.108 z m -1.7592875,0.61233 c 5.3479845,20.72088 19.5721285,31.03219 33.6417855,33.78659 l 0,5.403 c 0,1.8122 1.450454,3.3138 3.267249,3.3138 l 9.586274,0 c 1.784729,0 3.267248,-1.4912 3.267248,-3.3138 l 0,-5.2589 c 13.392106,-1.4969 29.856968,-15.26677 33.749505,-33.82263 0.6362,0.54553 1.0412,1.36071 1.0412,2.26925 l 0,60.29718 c 0,1.6482 -1.30922,3.0256 -2.944099,3.0256 l -79.849875,0 c -1.5874375,0 -2.9082045,-1.3774 -2.9082045,-3.0256 l 0,-60.29718 c 0,-0.96427 0.451488,-1.83364 1.148917,-2.37731 z m 36.9090335,23.80909 9.586275,0 c 1.146402,0 2.118331,0.9616 2.118331,2.1612 l 0,13.2193 c 0,1.1996 -0.971929,2.1612 -2.118331,2.1612 l -9.586275,0 c -1.195724,0 -2.118331,-0.9512 -2.118331,-2.1612 l 0,-13.2193 c 0,-1.21 0.922607,-2.1612 2.118331,-2.1612 z" fill="#000000" fill-opacity="1" fill-rule="evenodd" stroke="none" marker="none" visibility="visible" display="inline" overflow="visible"></path></g></svg>