<svg height='100px' width='100px'  fill="#000000" xmlns="http://www.w3.org/2000/svg" xmlns:xlink="http://www.w3.org/1999/xlink" xml:space="preserve" style="shape-rendering:geometricPrecision;text-rendering:geometricPrecision;image-rendering:optimizeQuality;" viewBox="0 0 6.82666 6.82666" x="0px" y="0px" fill-rule="evenodd" clip-rule="evenodd"><defs><style type="text/css">
   
    .fil2 {fill:none}
    .fil1 {fill:#000000}
    .fil0 {fill:#000000;fill-rule:nonzero}
   
  </style></defs><g><g><path class="fil0" d="M2.49833 4.1915l0.250965 0 0.0360394 0.014378c0.0878071,0.0811575 0.187744,0.145783 0.296268,0.189756 0.103783,0.0420472 0.215413,0.0649134 0.331728,0.0649134 0.0930827,0 0.183236,-0.023 0.268717,-0.0629134 0.096689,-0.0451417 0.187783,-0.111677 0.270827,-0.191134l0.0366654 -0.015 0.338783 0c0.294642,0 0.562469,0.1205 0.756598,0.31463 0.194134,0.194134 0.314634,0.461957 0.314634,0.756598l0 0.657272 0 0.0533346 -0.0533346 0 -3.86579 0 -0.0533346 0 0 -0.0533346 0 -0.657272c0,-0.294642 0.1205,-0.562465 0.314634,-0.756598 0.19413,-0.19413 0.461957,-0.31463 0.756598,-0.31463zm0.230776 0.106669l-0.230776 0c-0.265197,0 -0.506335,0.108531 -0.681181,0.283378 -0.17485,0.17485 -0.283382,0.415984 -0.283382,0.681181l0 0.603937 3.75912 0 0 -0.603937c0,-0.265197 -0.108531,-0.506331 -0.283382,-0.681181 -0.174846,-0.174846 -0.415984,-0.283378 -0.681181,-0.283378l-0.318039 0c-0.0869409,0.0806654 -0.182055,0.148476 -0.283236,0.195717 -0.0996378,0.0465236 -0.20487,0.0733307 -0.313717,0.0733307 -0.130185,0 -0.255283,-0.0256575 -0.371728,-0.0728346 -0.113461,-0.0459724 -0.218744,-0.112677 -0.312496,-0.196213z"></path><path class="fil0" d="M4.50432 2.48517c0.00914961,0.0459488 0.0162205,0.0938268 0.0210748,0.143488 0.00479528,0.0489921 0.00725591,0.0976339 0.00725591,0.145705 0,0.354248 -0.124335,0.675488 -0.325346,0.90848 -0.202787,0.235051 -0.483469,0.380437 -0.793972,0.380437 -0.310508,0 -0.591189,-0.145386 -0.793976,-0.380437 -0.201012,-0.232992 -0.325346,-0.554232 -0.325346,-0.90848 0,-0.0480709 0.00246063,-0.0967126 0.00725591,-0.145705 0.00485433,-0.0496614 0.0119252,-0.0975394 0.0210748,-0.143488l0.104583 0.0204173c-0.00884646,0.0444252 -0.0155,0.0888543 -0.0198228,0.133071 -0.00424016,0.0433543 -0.00642126,0.088622 -0.00642126,0.135705 0,0.328146 0.114303,0.624709 0.299094,0.838898 0.183016,0.212138 0.435335,0.34335 0.713559,0.34335 0.27822,0 0.530539,-0.131213 0.713555,-0.34335 0.184791,-0.214189 0.299094,-0.510752 0.299094,-0.838898 0,-0.0470827 -0.0021811,-0.0923504 -0.00642126,-0.135705 -0.00432283,-0.0442165 -0.0109764,-0.0886457 -0.0198228,-0.133071l0.104583 -0.0204173z"></path><path class="fil0" d="M3.4302 0.856071l1.87858 0.538909 -0.0145827 0.051248 0.0147047 -0.0512638c0.028311,0.00811811 0.0446772,0.0376575 0.0365591,0.0659685 -0.00549213,0.0191535 -0.0207874,0.0328386 -0.038874,0.0371732l-1.87856 0.538902 1.1811e-005 4.72441e-005c-0.0107638,0.00308661 -0.0217008,0.00262992 -0.0315748,-0.000673228l-1.87857 -0.538906 0.0145827 -0.051248 -0.0147047 0.0512638c-0.028311,-0.00811811 -0.0446772,-0.0376575 -0.0365591,-0.0659685 0.00549213,-0.0191535 0.0207874,-0.0328386 0.038874,-0.0371732l1.87856 -0.538906 -1.1811e-005 -4.72441e-005c0.0107638,-0.00308661 0.0217008,-0.00262992 0.0315748,0.000673228zm1.67077 0.590157l-1.68764 -0.484134 -1.68763 0.484134 1.68763 0.48413 1.68764 -0.48413z"></path><path class="fil0" d="M4.59757 1.66086c0,-0.0294528 -0.0238819,-0.0533346 -0.0533346,-0.0533346 -0.0294528,0 -0.0533346,0.0238819 -0.0533346,0.0533346l0 0.724508c0,0.00717323 -0.00573622,0.0146535 -0.0149961,0.0213701 -0.0163701,0.011878 -0.0405472,0.0196535 -0.0679409,0.0216614l0.00374803 0.053126 -0.00390551 -0.053189c-0.000897638,6.69291e-005 -0.00178346,0.00015748 -0.00266535,0.00026378l-0.993217 0.0764252 -0.99302 -0.076626c-0.0275394,-0.00212205 -0.0518386,-0.00993307 -0.068248,-0.0218386 -0.00919291,-0.00666929 -0.0148976,-0.0140827 -0.0148976,-0.0211929l0 -0.724508c0,-0.0294528 -0.0238819,-0.0533346 -0.0533346,-0.0533346 -0.0294528,0 -0.0533346,0.0238819 -0.0533346,0.0533346l0 0.724508c0,0.0442165 0.0225945,0.0809803 0.0590709,0.107445 0.0320394,0.023252 0.0757835,0.0382087 0.122831,0.0418386l0.994102 0.0767087c0.00355512,0.000456693 0.00720472,0.000555118 0.0109173,0.000271654l-3.93701e-006 -6.29921e-005 0.997386 -0.0767441c0.00073622,-2.3622e-005 0.00148031,-5.51181e-005 0.00222441,-0.000110236l-3.93701e-006 -5.90551e-005 5.51181e-005 -3.93701e-006 0 -1.5748e-005c0.0470472,-0.00348425 0.0907323,-0.0184291 0.122732,-0.0416457 0.0365394,-0.0265118 0.0591693,-0.0633976 0.0591693,-0.107622l0 -0.724508z"></path><ellipse class="fil1" cx="3.41333" cy="1.44623" rx="0.0800359" ry="0.0644255"></ellipse><circle class="fil1" cx="4.96144" cy="2.57125" r="0.0800004"></circle><path class="fil0" d="M3.4797 1.3931c-0.0293386,-0.00183858 -0.054622,0.0204528 -0.0564606,0.0497913 -0.00183858,0.0293386 0.0204528,0.054622 0.0497913,0.0564606l1.43506 0.092248 0 0.907039c0,0.0294528 0.0238819,0.0533346 0.0533346,0.0533346 0.0294528,0 0.0533346,-0.0238819 0.0533346,-0.0533346l0 -0.956953 -3.93701e-006 0c2.3622e-005,-0.0279173 -0.0216614,-0.0514134 -0.0499094,-0.0532244l-0.00342126 0.0532244 0.00333465 -0.053126 -1.48506 -0.0954606z"></path><polygon class="fil1" points="4.86308,3.03464 4.96143,2.49327 5.05978,3.03464 "></polygon></g></g><rect class="fil2" width="6.82666" height="6.82666"></rect></svg>