<svg height='100px' width='100px'  fill="#000000" xmlns:dc="http://purl.org/dc/elements/1.1/" xmlns:cc="http://creativecommons.org/ns#" xmlns:rdf="http://www.w3.org/1999/02/22-rdf-syntax-ns#" xmlns:svg="http://www.w3.org/2000/svg" xmlns="http://www.w3.org/2000/svg" xmlns:sodipodi="http://sodipodi.sourceforge.net/DTD/sodipodi-0.dtd" xmlns:inkscape="http://www.inkscape.org/namespaces/inkscape" version="1.1" x="0px" y="0px" viewBox="0 0 100 100"><g transform="translate(0,-952.36218)"><path style="text-indent:0;text-transform:none;direction:ltr;block-progression:tb;baseline-shift:baseline;color:#000000;enable-background:accumulate;" d="m 49.999997,959.36218 c -9.92928,0 -18,8.0707 -18,18 0,9.9292 8.07072,18 18,18 9.929286,0 18.000005,-8.0708 18.000005,-18 0,-9.9293 -8.070719,-18 -18.000005,-18 z m 0,2 c 8.848405,0 16.000005,7.1516 16.000005,16 0,8.8484 -7.15161,16 -16.000005,16 -8.848389,0 -16,-7.1516 -16,-16 0,-8.8484 7.1516,-16 16,-16 z m -26,42.00002 c -5.968654,0 -8,3.8254 -8,9 0,0.6526 0.663546,3.3394 1,5 l 6,27 c 0.09713,0.4371 0.552258,1 1,1 l 52.000005,0 c 0.447741,0 0.90287,-0.5629 1,-1 l 6,-27 c 0.336451,-1.6606 1,-4.3474 1,-5 0,-5.1746 -2.03135,-9 -8,-9 z m 0,2 16,0 9,9 -10,29 -14,0 -7,-31 c 0,-4.1948 1.553494,-7 6,-7 z m 19,0 14.000005,0 -7.000005,7 z m 17.000005,0 16,0 c 4.446511,0 6,2.8052 6,7 l -7,31 -14,0 -10.000005,-29 z m -10.000005,12 9.000005,26 -18.000005,0 z" fill="#000000" fill-opacity="1" stroke="none" marker="none" visibility="visible" display="inline" overflow="visible"></path></g></svg>