<?xml version="1.0" encoding="UTF-8" standalone="no"?>
<svg
   xmlns:dc="http://purl.org/dc/elements/1.1/"
   xmlns:cc="http://creativecommons.org/ns#"
   xmlns:rdf="http://www.w3.org/1999/02/22-rdf-syntax-ns#"
   xmlns:svg="http://www.w3.org/2000/svg"
   xmlns="http://www.w3.org/2000/svg"
   viewBox="0 0 2433.9468 1050.4133"
   height="1050.4133"
   width="2433.9468"
   xml:space="preserve"
   id="svg2"
   version="1.1"><metadata
     id="metadata8"><rdf:RDF><cc:Work
         rdf:about=""><dc:format>image/svg+xml</dc:format><dc:type
           rdf:resource="http://purl.org/dc/dcmitype/StillImage" /></cc:Work></rdf:RDF></metadata><defs
     id="defs6" /><g
     transform="matrix(1.3333333,0,0,-1.3333333,0,1050.4133)"
     id="g10"><g
       transform="scale(0.1)"
       id="g12"><path
         id="path14"
         style="fill:#1e406b;fill-opacity:1;fill-rule:nonzero;stroke:none"
         d="M 4023.99,7878.08 V 7122.63 H 6095.83 V 6096.97 h -228.87 c -40.72,152.1 -128.72,313.44 -263.96,484.41 -135.36,170.96 -264.08,264.4 -385.97,280.48 -63.19,7.82 -138.47,13.92 -225.89,17.87 -87.43,3.96 -187.17,6.02 -299.03,6.02 H 4011.68 V 5194.34 h 488.18 c 156.56,0 271.07,14.55 343.38,43.47 72.08,29.02 135.78,77.56 190.52,145.56 44.8,57.91 83.02,135.37 114.51,232.38 31.52,96.92 52.43,188.3 62.62,274.37 h 228.87 V 4222.67 h -228.87 c -8.1,96.03 -30.03,197.45 -65.66,304.3 -35.56,107.11 -72.71,184.57 -111.47,232.51 -62.91,78.03 -134.7,128.97 -215.08,153.02 -80.27,23.89 -186.62,35.95 -318.82,35.95 H 4011.68 V 3673 c 0,-127.79 9.02,-228.64 27.37,-302.52 18.26,-73.8 54.05,-129.68 106.86,-167.58 52.87,-37.91 125.11,-62.4 216.62,-73.35 91.44,-11.01 221.69,-16.45 390.72,-16.45 h 265.42 c 109.86,0 202.32,3.95 277.63,11.93 77.29,7.97 157.13,22.52 239.56,43.54 82.36,20.91 140.9,49.51 175.42,85.46 93.67,95.97 191.76,241.4 294.47,436.35 102.71,194.98 168.43,338.38 196.81,430.27 h 219.82 L 6340.01,2867.17 H 4016.74 c 19.97,-84.77 -22.81,-435.37 -41.73,-579.08 C 3891.53,1652.43 3347,1178.96 2825.47,952.078 2303.72,725.02 1805.07,744.391 1805.07,744.391 2263.57,211.969 3165.82,0 3895.43,0 6150.86,0 7995.29,1683.21 7981.88,3989.43 7969.31,6164.11 6363.46,7886.12 4023.99,7878.08" /><path
         id="path16"
         style="fill:#1e406b;fill-opacity:1;fill-rule:nonzero;stroke:none"
         d="m 8713.69,4220.89 v 24.05 h 401.96 v -24.05 h -33.96 c -38.28,0 -66.16,-10.41 -83.72,-31.23 -11.08,-13.61 -16.58,-46.26 -16.58,-98.12 v -424.45 c 0,-65.25 -7.78,-118.22 -23.26,-158.72 -15.44,-40.57 -42.11,-75.88 -80.02,-105.93 -37.87,-30.13 -83.6,-45.16 -137.2,-45.16 -43.42,0 -77.65,9.97 -102.52,29.87 -24.97,19.97 -37.4,42.75 -37.4,68.35 0,21.01 5.78,36.96 17.31,47.59 15.15,13.26 32.9,20.03 53.19,20.03 14.77,0 28,-4.56 39.8,-13.64 11.74,-8.92 26.7,-32.97 44.65,-71.93 10.63,-23.12 24.17,-34.67 40.82,-34.67 12.43,0 24.11,7.02 34.87,21.14 10.88,13.98 16.32,39.01 16.32,74.8 v 592.72 c 0,43.82 -2.97,72.59 -8.92,86.73 -4.62,10.54 -14.33,19.68 -28.92,27.34 -19.84,10.16 -40.69,15.28 -62.65,15.28 h -33.77" /><path
         id="path18"
         style="fill:#1e406b;fill-opacity:1;fill-rule:nonzero;stroke:none"
         d="M 9725.14,3963.96 V 3607.6 c 0,-67.46 1.74,-108.78 5.26,-123.78 3.48,-15.1 8.92,-25.57 16.64,-31.55 7.59,-5.95 16.52,-8.86 26.7,-8.86 14.3,0 30.51,3.61 48.6,10.88 l 9.72,-23.19 -190.01,-71.29 h -31.29 v 124.17 c -54.56,-54.65 -96.17,-89.05 -124.74,-103.06 -28.73,-14.05 -58.98,-21.11 -90.87,-21.11 -35.7,0 -66.55,9.46 -92.59,28.51 -26.14,18.93 -44.27,43.48 -54.46,73.35 -10.22,29.81 -15.22,72.14 -15.22,126.76 v 261.99 c 0,27.76 -3.29,46.99 -9.84,57.69 -6.36,10.63 -16.01,18.86 -28.76,24.68 -12.78,5.7 -35.79,8.42 -69.23,8.04 v 23.13 h 222.98 v -392.3 c 0,-54.71 10.32,-90.47 30.92,-107.59 20.47,-17.05 45.31,-25.53 74.38,-25.53 19.97,0 42.47,5.75 67.69,17.24 25.18,11.58 55.12,33.51 89.74,65.98 v 331.96 c 0,33.57 -6.61,56.19 -19.91,67.99 -13.29,11.81 -40.95,18.2 -82.87,19.12 v 23.13 h 217.16" /><path
         id="path20"
         style="fill:#1e406b;fill-opacity:1;fill-rule:nonzero;stroke:none"
         d="m 10064.3,3857.14 c 74.2,82.8 145,124.22 212.4,124.22 34.6,0 64.2,-8.04 89.2,-23.98 24.9,-16.14 44.7,-42.46 59.5,-79.2 10.1,-25.6 15.2,-64.87 15.2,-117.81 v -250.54 c 0,-37.12 3.2,-62.33 9.7,-75.56 5.1,-10.64 13.3,-18.99 24.6,-25 11.2,-5.89 32.2,-8.83 62.7,-8.83 v -23.32 h -315 v 23.32 h 13.2 c 29.7,0 50.4,4.08 62.2,12.31 11.8,8.45 20,20.75 24.6,36.95 1.8,6.34 2.8,26.37 2.8,60.13 v 240.29 c 0,53.41 -7.4,92.18 -22.4,116.38 -15,24.05 -40,36.17 -75.4,36.17 -54.7,0 -109.1,-27.85 -163.3,-83.38 v -309.46 c 0,-39.71 2.6,-64.33 7.7,-73.6 6.5,-12.44 15.4,-21.52 26.6,-27.21 11.5,-5.79 34.6,-8.58 69.3,-8.58 v -23.32 h -314.89 v 23.32 h 13.86 c 32.21,0 53.98,7.47 65.34,22.62 11.27,15.1 16.9,44.02 16.9,86.77 v 218.78 c 0,70.11 -1.8,112.95 -5.19,128.24 -3.48,15.32 -8.8,25.79 -15.92,31.3 -7.21,5.53 -16.8,8.32 -28.86,8.32 -13,0 -28.44,-3.26 -46.51,-9.59 l -10.44,23.25 192.21,71.23 h 29.9 v -124.22" /><path
         id="path22"
         style="fill:#1e406b;fill-opacity:1;fill-rule:nonzero;stroke:none"
         d="m 10749.4,4287.15 c 19.5,0 36,-6.2 49.6,-18.85 13.7,-12.63 20.5,-27.85 20.5,-45.82 0,-18.01 -6.8,-33.35 -20.5,-46.14 -13.6,-12.81 -30.1,-19.3 -49.6,-19.3 -19.5,0 -36,6.49 -49.9,19.3 -13.9,12.79 -20.8,28.13 -20.8,46.14 0,17.97 6.9,33.19 20.5,45.82 13.6,12.65 30.3,18.85 50.2,18.85 m 57.7,-305.73 v -471.59 c 0,-36.74 2.9,-61.17 8.6,-73.35 5.8,-12.12 14.3,-21.1 25.6,-27.21 11.2,-5.89 32,-8.86 62,-8.86 v -23.16 H 10595 v 23.16 c 30.9,0 51.7,2.72 62.3,8.29 10.6,5.51 19,14.68 25.2,27.47 6.3,12.74 9.4,37.4 9.4,73.66 v 227.1 c 0,63.37 -2.1,104.38 -6.2,123.12 -3.3,13.66 -8.4,23.13 -15.4,28.44 -6.9,5.26 -16.4,7.98 -28.3,7.98 -13.1,0 -28.8,-3.17 -47.3,-9.59 l -9.7,23.19 191.5,71.35 h 30.6" /><path
         id="path24"
         style="fill:#1e406b;fill-opacity:1;fill-rule:nonzero;stroke:none"
         d="m 11271.3,3939.98 c -24.5,0 -49.1,-6.74 -73.9,-20.22 -24.7,-13.42 -44.8,-37.03 -60.1,-70.79 -15.3,-33.76 -22.9,-77.05 -22.9,-129.92 0,-85.34 18.4,-159.04 55.2,-220.83 36.8,-61.96 85.4,-92.87 145.5,-92.87 44.9,0 81.9,17.08 111.1,51.19 29.2,34.15 43.8,92.84 43.8,176.06 0,104.2 -24.3,186.06 -73,245.86 -32.8,40.98 -74.7,61.52 -125.7,61.52 m 21.6,41.38 c 96.1,0 173.2,-33.67 231.4,-101.13 49.4,-57.62 74.2,-123.72 74.2,-198.42 0,-52.56 -13.8,-105.73 -41,-159.45 -27.3,-53.76 -64.7,-94.27 -112.5,-121.7 -47.9,-27.27 -101.1,-40.88 -159.8,-40.88 -95.6,0 -171.6,35.19 -227.9,105.62 -47.6,59.3 -71.4,125.87 -71.4,199.73 0,53.79 14.4,107.21 43.3,160.33 28.9,53.13 66.9,92.33 114,117.74 47.1,25.41 97,38.16 149.7,38.16" /><path
         id="path26"
         style="fill:#1e406b;fill-opacity:1;fill-rule:nonzero;stroke:none"
         d="m 11878.7,3981.42 v -131.44 c 52.9,87.56 107.1,131.44 162.7,131.44 25.4,0 46.3,-7.21 62.7,-21.45 16.6,-14.27 25,-30.66 25,-49.33 0,-16.64 -6.1,-30.72 -18.1,-42.24 -11.9,-11.49 -26.2,-17.19 -42.7,-17.19 -16.1,0 -34.2,7.31 -54.2,22.03 -20,14.59 -34.8,21.93 -44.4,21.93 -8.2,0 -17.3,-4.3 -26.9,-12.79 -20.8,-17.56 -42.1,-46.26 -64.1,-86.31 v -282.16 c 0,-32.28 4.4,-56.77 13.2,-73.28 6,-11.55 16.7,-21.14 32,-28.76 15.2,-7.73 37.2,-11.49 65.9,-11.49 v -23.13 h -325.7 v 23.13 c 32.2,0 56.2,4.8 71.8,14.14 11.5,6.87 19.6,17.82 24.2,32.85 2.3,7.24 3.4,28.13 3.4,62.46 v 227.86 c 0,67.96 -1.5,108.53 -4.5,121.44 -3,12.94 -8.6,22.43 -16.7,28.32 -8.1,6.01 -18.1,9.05 -30.2,9.05 -14.3,0 -30.5,-3.23 -48.6,-9.56 l -6.9,23.13 192.9,71.35 h 29.2" /><path
         id="path28"
         style="fill:#1e406b;fill-opacity:1;fill-rule:nonzero;stroke:none"
         d="m 12747.5,4197.67 v -342.28 h 206.4 c 53.6,0 89.3,7.5 107.4,22.41 24.1,19.58 37.3,54.14 40.1,103.62 h 25.7 v -302.56 h -25.7 c -6.4,42.24 -12.9,69.33 -19.4,81.26 -8.2,14.91 -22,26.71 -40.8,35.19 -19,8.57 -48.1,12.84 -87.3,12.84 h -206.4 v -286.36 c 0,-38.44 1.9,-61.77 5.5,-70.12 3.7,-8.42 10.2,-14.96 19.5,-19.84 9.2,-4.94 26.9,-7.31 52.7,-7.31 h 159.6 c 53,0 91.7,3.29 115.8,10.16 24,6.74 47.2,20.15 69.3,40.31 28.7,26.29 58.1,66.1 88.2,119.36 h 27.3 l -81.1,-217.13 h -724.5 v 24.01 h 33.2 c 22.2,0 43.2,4.88 63.1,14.71 14.7,6.81 24.7,17 30,30.73 5.4,13.61 8,41.61 8,83.92 v 563.48 c 0,54.81 -6,88.63 -18.1,101.29 -16.5,17.02 -44.2,25.53 -83,25.53 h -33.2 v 24.02 h 725.2 l 9.9,-190.58 h -27.3 c -9.6,45.82 -20.5,77.4 -32.3,94.48 -11.8,17.12 -29.1,30.25 -52.2,39.21 -18.5,6.42 -51.1,9.65 -97.7,9.65 h -257.9" /><path
         id="path30"
         style="fill:#1e406b;fill-opacity:1;fill-rule:nonzero;stroke:none"
         d="m 13548.1,3857.14 c 74.2,82.8 145,124.22 212.4,124.22 34.5,0 64.3,-8.04 89.3,-23.98 24.7,-16.14 44.7,-42.46 59.4,-79.2 10.2,-25.6 15.3,-64.87 15.3,-117.81 v -250.54 c 0,-37.12 3.2,-62.33 9.6,-75.56 5.1,-10.64 13.2,-18.99 24.6,-25 11.3,-5.89 32.2,-8.83 62.7,-8.83 v -23.32 h -315 v 23.32 h 13.2 c 29.7,0 50.4,4.08 62.2,12.31 11.8,8.45 20,20.75 24.7,36.95 1.8,6.34 2.7,26.37 2.7,60.13 v 240.29 c 0,53.41 -7.4,92.18 -22.4,116.38 -14.9,24.05 -40,36.17 -75.5,36.17 -54.6,0 -109,-27.85 -163.2,-83.38 v -309.46 c 0,-39.71 2.5,-64.33 7.7,-73.6 6.4,-12.44 15.4,-21.52 26.8,-27.21 11.4,-5.79 34.4,-8.58 69.1,-8.58 v -23.32 h -314.9 v 23.32 h 13.8 c 32.4,0 54.1,7.47 65.3,22.62 11.4,15.1 17,44.02 17,86.77 v 218.78 c 0,70.11 -1.6,112.95 -5.2,128.24 -3.4,15.32 -8.8,25.79 -15.9,31.3 -7.2,5.53 -16.8,8.32 -28.8,8.32 -13,0 -28.5,-3.26 -46.6,-9.59 l -10.4,23.25 192.2,71.23 h 29.9 v -124.22" /><path
         id="path32"
         style="fill:#1e406b;fill-opacity:1;fill-rule:nonzero;stroke:none"
         d="m 14256.9,4156.19 v -192.2 h 148.3 v -44.71 h -148.3 v -380.72 c 0,-37.97 5.9,-63.57 17.7,-76.86 11.7,-13.29 26.7,-19.84 45.2,-19.84 15.1,0 29.8,4.33 44.1,13.17 14.2,8.79 25.3,21.83 33.2,39.07 h 27.3 c -16.3,-42.11 -39.1,-73.76 -68.8,-95.02 -29.6,-21.23 -60.1,-31.8 -91.7,-31.8 -21.2,0 -42.1,5.45 -62.5,16.26 -20.3,10.89 -35.3,26.58 -45.1,46.87 -9.7,20.34 -14.6,51.57 -14.6,93.88 v 394.99 h -100.3 v 21.04 c 25.4,9.34 51.5,25.16 77.9,47.66 26.6,22.27 50.4,48.73 71.4,79.45 10.7,16.2 25.6,45.82 44.7,88.76 h 21.5" /><path
         id="path34"
         style="fill:#1e406b;fill-opacity:1;fill-rule:nonzero;stroke:none"
         d="m 14652.9,3981.42 v -131.44 c 52.9,87.56 107.1,131.44 162.7,131.44 25.3,0 46.3,-7.21 62.8,-21.45 16.6,-14.27 24.9,-30.66 24.9,-49.33 0,-16.64 -6.1,-30.72 -18.1,-42.24 -11.9,-11.49 -26.2,-17.19 -42.6,-17.19 -16.2,0 -34.3,7.31 -54.3,22.03 -19.9,14.59 -34.7,21.93 -44.4,21.93 -8.2,0 -17.2,-4.3 -27,-12.79 -20.6,-17.56 -41.9,-46.26 -64,-86.31 v -282.16 c 0,-32.28 4.5,-56.77 13.2,-73.28 6,-11.55 16.7,-21.14 31.9,-28.76 15.3,-7.73 37.3,-11.49 66,-11.49 v -23.13 h -325.7 v 23.13 c 32.1,0 56.2,4.8 71.9,14.14 11.4,6.87 19.5,17.82 24.2,32.85 2.2,7.24 3.4,28.13 3.4,62.46 v 227.86 c 0,67.96 -1.6,108.53 -4.6,121.44 -2.9,12.94 -8.6,22.43 -16.6,28.32 -8.2,6.01 -18.2,9.05 -30.2,9.05 -14.3,0 -30.6,-3.23 -48.6,-9.56 l -7,23.13 192.9,71.35 h 29.2" /><path
         id="path36"
         style="fill:#1e406b;fill-opacity:1;fill-rule:nonzero;stroke:none"
         d="m 15046,3779.96 h 294.2 c -2.3,37.43 -7.2,63.82 -14.5,79.17 -11.6,23.86 -28.8,42.59 -51.8,56.2 -22.8,13.66 -46.9,20.47 -71.8,20.47 -38.4,0 -72.7,-13.8 -103,-41.26 -30.3,-27.5 -48,-65.66 -53.1,-114.58 m 0,-37.28 c -0.5,-86.89 22.4,-155.01 68.5,-204.31 46.2,-49.52 100.5,-74.2 162.9,-74.2 41.4,0 77.5,10.47 108.2,31.55 30.7,20.88 56.5,57.08 77.2,108.63 l 21.6,-12.85 c -9.7,-58.76 -37.8,-112.05 -84.5,-159.92 -46.7,-47.91 -105.2,-71.8 -175.4,-71.8 -76.1,0 -141.4,27.4 -195.6,82.08 -54.4,54.83 -81.6,128.44 -81.6,220.99 0,100.11 28,178.4 83.6,234.41 55.7,56.1 125.5,84.16 209.6,84.16 71.2,0 129.5,-21.7 175.4,-64.99 45.7,-43.35 68.5,-101.22 68.5,-173.75 H 15046" /><path
         id="path38"
         style="fill:#1e406b;fill-opacity:1;fill-rule:nonzero;stroke:none"
         d="m 15744.7,3803.97 v -219.09 c 0,-47.37 2,-78.53 6.2,-93.47 6.5,-24.8 22.3,-46.51 47.4,-65.37 25.2,-18.79 56.8,-28.13 95,-28.13 46.2,0 83.4,16.68 112.1,49.9 37.2,43.6 56,104.86 56,183.9 0,89.64 -21.3,158.66 -63.7,206.82 -29.4,33.35 -64.5,50.02 -105,50.02 -22.2,0 -44.1,-5.06 -65.7,-15.37 -16.6,-7.69 -44,-30.79 -82.3,-69.21 m -222.1,101.17 195.8,72.97 h 26.3 v -136.29 c 32.8,51.57 65.7,87.74 98.7,108.47 32.9,20.76 67.7,31.13 104.1,31.13 63.6,0 116.7,-23.09 159.2,-69.17 52.1,-56.38 78.1,-129.79 78.1,-220.26 0,-101.16 -31.4,-184.76 -94,-250.98 -51.7,-54.18 -116.8,-81.26 -195.2,-81.26 -34.2,0 -63.6,4.46 -88.6,13.35 -18.4,6.42 -39.1,19.11 -62.3,38.29 v -178.4 c 0,-40.37 2.7,-66.04 7.9,-76.99 5.4,-11.01 14.7,-19.55 28,-26.1 13.1,-6.42 37.1,-9.65 71.9,-9.65 v -23.22 h -333.2 v 23.22 h 17.3 c 25.4,-0.41 47.2,4.08 65.2,13.48 8.8,4.65 15.6,12.31 20.5,22.78 4.9,10.44 7.3,36.96 7.3,79.74 v 554.44 c 0,37.78 -1.9,61.89 -5.6,72.01 -3.7,10.16 -9.6,17.88 -17.7,23.01 -8.2,5.09 -19.1,7.62 -32.9,7.62 -11.2,0 -25.3,-2.97 -42.5,-8.86 l -8.3,20.67" /><g
         transform="scale(1.02548)"
         id="g40"><path
           id="path42"
           style="fill:#1e406b;fill-opacity:1;fill-rule:nonzero;stroke:none"
           d="M 16055.9,3882.48 V 3754.3 c 51.6,85.39 104.6,128.18 158.7,128.18 24.6,0 45.1,-7.03 61.2,-20.92 16.1,-13.92 24.2,-29.9 24.2,-48.1 0,-16.23 -5.9,-29.96 -17.5,-41.2 -11.7,-11.2 -25.6,-16.76 -41.7,-16.76 -15.7,0 -33.3,7.13 -52.8,21.48 -19.4,14.23 -34,21.39 -43.3,21.39 -8.1,0 -16.9,-4.19 -26.3,-12.47 -20.2,-17.13 -41,-45.11 -62.5,-84.17 v -275.15 c 0,-31.47 4.3,-55.35 12.9,-71.46 5.8,-11.26 16.3,-20.61 31.2,-28.04 14.8,-7.54 36.3,-11.21 64.3,-11.21 v -22.55 h -317.6 v 22.55 c 31.4,0 54.7,4.69 70,13.79 11.2,6.7 19.1,17.38 23.6,32.04 2.3,7.06 3.3,27.43 3.3,60.9 v 222.2 c 0,66.27 -1.4,105.83 -4.4,118.42 -2.8,12.62 -8.4,21.88 -16.3,27.62 -7.9,5.86 -17.6,8.83 -29.3,8.83 -14.1,0 -29.8,-3.15 -47.5,-9.32 l -6.8,22.55 188.1,69.58 h 28.5" /></g><g
         transform="scale(1.04701)"
         id="g44"><path
           id="path46"
           style="fill:#1e406b;fill-opacity:1;fill-rule:nonzero;stroke:none"
           d="m 16153.1,4094.65 c 18.4,0 34.3,-5.92 47.5,-18 12.9,-12.06 19.5,-26.6 19.5,-43.76 0,-17.21 -6.6,-31.86 -19.5,-44.07 -13.2,-12.24 -29.1,-18.44 -47.5,-18.44 -18.7,0 -34.5,6.2 -47.8,18.44 -13.2,12.21 -19.9,26.86 -19.9,44.07 0,17.16 6.7,31.7 19.5,43.76 13.2,12.08 29.1,18 48.2,18 m 55,-292 v -450.42 c 0,-35.09 2.8,-58.42 8.2,-70.05 5.6,-11.58 13.8,-20.16 24.6,-25.99 10.7,-5.63 30.4,-8.46 59.1,-8.46 v -22.12 h -294.6 v 22.12 c 29.7,0 49.5,2.59 59.6,7.91 10.1,5.27 18.2,14.02 24.1,26.24 6,12.17 9,35.72 9,70.35 v 216.91 c 0,60.52 -1.9,99.69 -6,117.59 -3,13.05 -8,22.09 -14.6,27.16 -6.5,5.03 -15.8,7.62 -27.1,7.62 -12.5,0 -27.5,-3.02 -45.2,-9.16 l -9.2,22.15 183,68.15 h 29.1" /></g><g
         transform="scale(1.07994)"
         id="g48"><path
           id="path50"
           style="fill:#1e406b;fill-opacity:1;fill-rule:nonzero;stroke:none"
           d="m 16255.6,3686.69 v -184.94 h -21.5 c -16.2,57.84 -37.1,97.31 -62.3,118.19 -25.4,20.96 -57.6,31.39 -96.8,31.39 -29.8,0 -53.8,-7.33 -72.1,-21.89 -18.4,-14.64 -27.5,-30.79 -27.5,-48.55 0,-22.09 6.7,-41.04 20.3,-56.9 13.1,-16.14 40,-33.28 80.6,-51.48 l 93.6,-42.01 c 86.8,-39.07 130.1,-90.65 130.1,-154.62 0,-49.46 -20.2,-89.22 -60.6,-119.55 -40.3,-30.17 -85.5,-45.29 -135.5,-45.29 -35.9,0 -76.9,5.94 -123,17.87 -14.2,3.95 -25.6,5.94 -34.6,5.94 -9.8,0 -17.5,-5.09 -23.2,-15.41 h -21.4 v 193.44 h 21.4 c 12,-55.14 34.8,-96.65 68.6,-124.55 33.7,-28.04 71.4,-41.96 113.3,-41.96 29.4,0 53.5,7.95 72,23.94 18.5,16.03 27.8,35.25 27.8,57.75 0,27.16 -10.3,50.11 -30.9,68.65 -20.6,18.58 -61.9,42.05 -123.8,70.43 -62.1,28.46 -102.6,54.13 -121.9,77.06 -19.1,22.51 -28.8,50.93 -28.8,85.27 0,44.77 16.5,82.01 49.6,112.08 33,30 75.8,45.14 128.3,45.14 23,0 50.8,-4.51 83.8,-13.5 21.8,-5.89 36.2,-8.76 43.4,-8.76 6.9,0 12.3,1.31 16.1,4.07 3.8,2.7 8.3,8.76 13.5,18.19 h 21.5" /></g><g
         transform="scale(1.11921)"
         id="g52"><path
           id="path54"
           style="fill:#1e406b;fill-opacity:1;fill-rule:nonzero;stroke:none"
           d="m 15908.3,3377.33 h 263 c -2.2,33.45 -6.6,57.03 -13,70.74 -10.5,21.32 -25.8,38.05 -46.4,50.21 -20.3,12.21 -41.9,18.29 -64,18.29 -34.3,0 -65,-12.33 -92.2,-36.86 -26.9,-24.57 -42.8,-58.67 -47.4,-102.38 m 0,-33.31 c -0.4,-77.63 20.1,-138.49 61.4,-182.54 41.2,-44.25 89.7,-66.3 145.3,-66.3 37.1,0 69.3,9.35 96.9,28.19 27.3,18.66 50.3,51 68.9,97.06 l 19.2,-11.48 c -8.7,-52.51 -33.9,-100.12 -75.5,-142.89 -41.5,-42.8 -93.9,-64.15 -156.6,-64.15 -68.1,0 -126.5,24.48 -174.9,73.34 -48.5,48.99 -72.8,114.76 -72.8,197.45 0,89.44 24.9,159.39 74.6,209.44 49.8,50.12 112.1,75.2 187.4,75.2 63.5,0 115.7,-19.4 156.6,-58.07 40.8,-38.73 61.2,-90.44 61.2,-155.25 h -391.7" /></g><path
         id="path56"
         style="fill:#1e406b;fill-opacity:1;fill-rule:nonzero;stroke:none"
         d="m 8902.44,2368.02 v -387.91 h 232.86 c 60.78,0 101.41,8.48 121.88,25.35 27.15,22.15 42.47,61.29 45.51,117.2 h 29.01 v -343.13 h -29.01 c -7.28,47.91 -14.59,78.7 -21.97,92.37 -9.39,16.77 -24.89,30.18 -46.35,39.83 -21.51,9.71 -54.42,14.53 -99.07,14.53 h -232.86 v -324.08 c 0,-43.48 2.09,-70 6.3,-79.33 4.15,-9.52 11.55,-16.99 21.9,-22.56 10.57,-5.5 30.4,-8.35 59.74,-8.35 h 180.48 c 60.15,0 103.88,3.89 131.04,11.61 27.21,7.78 53.41,23 78.53,45.75 32.4,30 65.72,75.28 99.68,135.75 h 31.51 l -91.92,-246.97 h -820.58 v 26.58 h 37.72 c 25.12,0 48.98,5.57 71.54,16.7 16.71,7.85 28.1,19.53 34.15,35.13 6,15.51 9.07,47.46 9.07,95.66 v 638.19 c 0,62.65 -6.8,101.22 -20.5,115.81 -18.8,19.49 -50.28,29.14 -94.26,29.14 h -37.72 v 26.58 h 821.31 l 10.75,-216.31 h -30.72 c -10.88,51.9 -23.07,87.62 -36.42,107.05 -13.29,19.43 -33.03,34.2 -59.23,44.39 -20.92,7.31 -57.78,11.02 -110.56,11.02 h -291.81" /><path
         id="path58"
         style="fill:#1e406b;fill-opacity:1;fill-rule:nonzero;stroke:none"
         d="m 11867.7,1939.93 c 27.7,-4.84 52.3,-8.42 73.8,-10.89 21.5,-2.47 39.8,-3.6 55.1,-3.6 54.3,0 101.3,19.42 140.9,58.44 39.5,38.89 59.2,89.35 59.2,151.25 0,42.65 -9.4,82.17 -28.2,118.72 -18.9,36.55 -45.6,63.76 -80.2,82.05 -34.6,18.07 -73.8,27.08 -117.8,27.08 -26.6,0 -61,-4.55 -102.8,-13.79 z m 0,-41.39 v -286.43 c 0,-62.02 7.3,-100.53 21.9,-115.56 19.9,-21.2 49.8,-31.96 89.9,-31.96 h 40.7 v -26.48 h -455.9 v 26.48 h 40.1 c 45.1,0 77.3,13.55 96.6,40.64 10.6,15.12 15.8,50.68 15.8,106.88 v 635.7 c 0,61.95 -6.9,100.59 -21.2,115.56 -20.5,21.32 -50.8,32.01 -91.2,32.01 h -40.1 v 26.43 h 390.8 c 95.4,0 170.7,-8.99 225.7,-27.15 55,-18.2 101.4,-48.79 139.1,-91.83 37.8,-43.16 56.6,-94.16 56.6,-153.18 0,-80.3 -28.6,-145.68 -86.1,-195.96 -57.4,-50.37 -138.4,-75.44 -243.4,-75.44 -25.7,0 -53.5,1.62 -83.3,4.97 -29.9,3.45 -62,8.51 -96,15.32" /><path
         id="path60"
         style="fill:#1e406b;fill-opacity:1;fill-rule:nonzero;stroke:none"
         d="m 14750.8,2368.02 v -386.23 h 193.9 c 44.6,0 77.1,9.08 98,27.09 20.6,18.06 34.4,54.04 41.2,107.96 h 29.1 v -333.1 h -29.1 c -0.5,38.04 -5.9,66.04 -16.1,83.85 -10.2,17.92 -24.4,31.33 -42.4,40.25 -18.2,9.02 -45,13.42 -80.7,13.42 h -193.9 v -309.11 c 0,-49.9 3.3,-82.88 10.2,-98.82 5.2,-12.12 16.2,-22.57 33,-31.3 23,-11.61 47.2,-17.37 72.4,-17.37 h 38.6 v -26.58 h -457.6 v 26.58 h 37.8 c 44.1,0 76,11.8 95.8,35.63 12.6,15.5 18.9,52.84 18.9,111.86 v 635.66 c 0,49.9 -3.4,82.8 -10.2,98.88 -5.2,12.06 -16,22.49 -32.2,31.23 -22.6,11.61 -46.7,17.37 -72.3,17.37 h -37.8 v 26.58 h 792.3 l 10.9,-216.31 h -27.4 c -13.6,46.01 -29.5,79.65 -47.6,101.17 -18,21.51 -40.3,37.05 -66.8,46.76 -26.4,9.75 -67.4,14.53 -123,14.53 h -235" /><g
         transform="scale(1.11991)"
         id="g62"><path
           id="path64"
           style="fill:#1e406b;fill-opacity:1;fill-rule:nonzero;stroke:none"
           d="m 16277.1,1526.83 22.9,-4.58 -81.4,-238.15 h -736.3 v 23.67 h 35.6 c 40,0 68.6,12.15 85.9,36.17 9.7,13.76 14.6,45.57 14.6,95.59 v 567.6 c 0,54.95 -6.6,89.27 -19.5,103.15 -18.2,19.04 -45.2,28.59 -81,28.59 h -35.6 v 23.68 h 429.8 v -23.68 c -50.3,0.4 -85.8,-3.92 -106.2,-12.97 -20.3,-9.12 -34.2,-20.54 -41.7,-34.35 -7.4,-13.84 -11,-46.93 -11,-99.26 v -552.2 c 0,-35.79 3.6,-60.52 11.1,-73.89 5.6,-9.15 14.2,-15.79 26,-20.14 11.7,-4.27 48.2,-6.48 109.6,-6.48 h 69.4 c 73.2,0 124.3,5.04 153.9,14.94 29.5,9.87 56.3,27.48 80.9,52.82 24.3,25.23 48.6,65.09 73,119.49" /></g><g
         transform="scale(1.11952)"
         id="g66"><path
           id="path68"
           style="fill:#608bba;fill-opacity:1;fill-rule:nonzero;stroke:none"
           d="M 7680.47,2588.83 H 16300 v 8.62 H 7680.47 v -8.62" /></g><path
         id="path70"
         style="fill:#608bba;fill-opacity:1;fill-rule:nonzero;stroke:none"
         d="M 4011.59,6885.59 H 1090.4 v -147.23 h 230.74 c 153.9,0 276.14,-25.79 366.6,-77.68 90.53,-51.49 151.44,-112.46 182.42,-181.35 31.04,-68.94 46.67,-241.59 46.67,-518.01 V 3073.48 c 0,-563.3 -15.63,-906.55 -46.67,-1030.11 -30.98,-123.29 -84.55,-214.51 -160.11,-272.63 -75.5,-58.86 -171.63,-87.75 -287.54,-87.75 -165.07,0 -298.76,36.93 -401.09,111.38 -70.315,50.57 -105.502,110.43 -105.502,179.32 0,45.28 36.965,121.51 111.422,229.09 74.13,107.55 116.95,174.44 127.39,201.21 19.17,55.73 28.57,120.85 28.57,194.98 0,151.79 -56.04,279.18 -168.15,382.62 -112.107,103.73 -250.67,155.59 -415.337,155.59 -167.45,0 -309.11,-57.75 -425.426,-173.37 C 58.4453,2848.22 0,2697.47 0,2511.55 c 0,-289.6 142.773,-553.56 427.52,-792.67 285.128,-239.19 658.64,-358.61 1120.65,-358.61 378.06,0 701.48,79.04 970.27,237.1 268.74,158.05 455.72,354.42 561.22,589.4 105.43,234.98 158.05,611.67 158.05,1129.37 v 2645.18 c 0,271.2 14.96,438.25 44.52,501.94 40.76,90.52 94.74,154.32 161.88,191.5 97.52,55.75 227.01,83.6 389.2,83.6 h 178.28 v 147.23" /></g></g></svg>