<svg height='100px' width='100px'  fill="#000000" xmlns="http://www.w3.org/2000/svg" xmlns:cc="http://creativecommons.org/ns#" xmlns:dc="http://purl.org/dc/elements/1.1/" xmlns:rdf="http://www.w3.org/1999/02/22-rdf-syntax-ns#" version="1.1" viewBox="0 0 26.458 26.458" x="0px" y="0px"><g transform="translate(0 -270.54)"><path d="m13.646 275.87c-0.39028 1.3e-4 -0.78067 0.0806-1.078 0.24166l-8.6419 4.6802c-0.35453 0.192-0.49586 0.4555-0.42763 0.70518a0.14473 0.14473 0 0 0-6e-3 0.0441v5.7675h-0.70179a0.14473 0.14473 0 0 0-0.14528 0.14415v3.2048a0.14473 0.14473 0 0 0 0.24788 0.1026l0.74446-0.74475 0.74363 0.74475a0.14473 0.14473 0 0 0 0.24674-0.1026v-3.2048a0.14473 0.14473 0 0 0-0.14415-0.14415h-0.70207v-5.4416c0.0439 0.032 0.0909 0.0629 0.14443 0.0919l3.3767 1.8287v5.7164c-6e-5 0.33864 0.20994 0.64358 0.5438 0.90049s0.80018 0.47745 1.3714 0.66335c1.1424 0.3718 2.7036 0.59836 4.4281 0.59834 1.7245-1e-5 3.2855-0.22654 4.4278-0.59834 0.57116-0.1859 1.0378-0.40645 1.3716-0.66335 0.33384-0.25691 0.54357-0.56186 0.54351-0.90049v-5.7158l3.3764-1.8287c0.59463-0.32203 0.5956-0.84527 1e-3 -1.1673l-8.6428-4.681c-0.2973-0.16102-0.68741-0.24122-1.0777-0.24109zm-2.9e-4 0.21113c0.28858-1.2e-4 0.57719 0.06 0.79987 0.18061l8.6428 4.6808c0.44536 0.2412 0.44438 0.62536-1e-3 0.86656l-3.2557 1.7631a0.14473 0.14473 0 0 0-0.056 0.017l-5.2602 2.8479c-0.46279 0.25064-1.2763 0.25064-1.7391 0l-5.259-2.8479a0.14473 0.14473 0 0 0-0.0235-0.0107h-1e-3a0.14473 0.14473 0 0 0-0.0336-7e-3l-3.2551-1.7628c-0.44537-0.24121-0.44538-0.62481 0-0.86601h2.9e-4l8.6416-4.6802c0.22269-0.1206 0.51129-0.18104 0.79987-0.18117zm-6.0535 7.8774 5.0462 2.7337c0.57719 0.3126 1.4377 0.3126 2.0149 0l5.0462-2.7337v5.5454c4e-5 0.21847-0.13702 0.44488-0.43046 0.6707-0.29345 0.22582-0.7346 0.4395-1.2852 0.6187-1.1011 0.35839-2.6389 0.58307-4.3379 0.58308-1.6991 2e-5 -3.237-0.22469-4.3382-0.58308-0.55059-0.1792-0.9917-0.39287-1.2852-0.6187s-0.4305-0.45222-0.43046-0.6707zm-4.6576 3.6395h1.4039v2.7091l-0.59948-0.59806a0.14473 0.14473 0 0 0-0.20406 0l-0.60033 0.59919z" color="#000000" color-rendering="auto" dominant-baseline="auto" image-rendering="auto" shape-rendering="auto" solid-color="#000000" style="font-feature-settings:normal;font-variant-alternates:normal;font-variant-caps:normal;font-variant-ligatures:normal;font-variant-numeric:normal;font-variant-position:normal;isolation:auto;mix-blend-mode:normal;paint-order:stroke markers fill;shape-padding:0;text-decoration-color:#000000;text-decoration-line:none;text-decoration-style:solid;text-indent:0;text-orientation:mixed;text-transform:none;white-space:normal;"></path></g></svg>